{"title":"Killer Mountain [2011] R5 - PRESTiGE","uid":6799816,"size":742015788,"categoryP":"video","categoryS":"movies","magnet":"?xt=urn:btih:1204cfd6137358b8c0aeddb4d6b38bd947958da2&amp;dn=Killer+Mountain+%5B2011%5D+R5+-+PRESTiGE&amp;tr=udp%3A%2F%2Ftracker.openbittorrent.com%3A80&amp;tr=udp%3A%2F%2Fopen.demonii.com%3A1337&amp;tr=udp%3A%2F%2Ftracker.coppersurfer.tk%3A6969&amp;tr=udp%3A%2F%2Fexodus.desync.com%3A6969","seeders":0,"leechers":0,"uploader":"sceneline","files":5,"time":1320660515,"description":"- &lt;a href=&quot;\nhttp://www.Speed.Cd&quot; rel=&quot;nofollow&quot; target=&quot;_NEW&quot;&gt;\nhttp://www.Speed.Cd&lt;/a&gt;      fast  and The Hottest Private Tracker on the net\n\n   signup is open now\n\nPlease Seed back to make the speed Faster!!!\n\n------------------nfo--------------------------\n-[align=center][IMG]http://i.imgur.com/Vg6cA.jpg[/IMG]\n\n[IMG]http://i796.photobucket.com/albums/yy246/jungledave7080/twisted/PresInfoRaw-1.png[/IMG]\n\nComplete name : Killer Mountain [2011] R5 - PRESTiGE.avi \nFormat : AVI \nFormat/Info : Audio Video Interleave \nFile size : 701 MiB \nDuration : 1h 24mn \nOverall bit rate : 1 156 Kbps \nIMDB: http://www.imdb.com/title/tt1728638/\nEncoder:[color=#6600CC][b][i]Twisted[/i][/b][/color]\nSource: Killer.Mountain.2011.R5.PAL.DVDR-NOYK\n\n[IMG]http://i796.photobucket.com/albums/yy246/jungledave7080/twisted/PresVidRaw-1.png[/IMG]\n\nID : 0 \nFormat : MPEG-4 Visual \nFormat profile : Advanced Simple@L5 \nFormat settings, BVOP : 2 \nFormat settings, QPel : No \nFormat settings, GMC : No warppoints \nFormat settings, Matrix : Default (H.263) \nMuxing mode : Packed bitstream \nCodec ID : XVID \nCodec ID/Hint : XviD \nDuration : 1h 24mn \nBit rate : 1 019 Kbps \nWidth : 720 pixels \nHeight : 400 pixels \nDisplay aspect ratio : 16:9 \nFrame rate : 25.000 fps \nColor space : YUV \nChroma subsampling : 4:2:0 \nBit depth : 8 bits \nScan type : Progressive \nCompression mode : Lossy \nBits/(Pixel*Frame) : 0.142 \nStream size : 617 MiB (88%) \nWriting library : XviD 63 \n\n\n[IMG]http://i796.photobucket.com/albums/yy246/jungledave7080/twisted/PresAudRaw-1.png[/IMG]\n\nID : 1 \nFormat : MPEG Audio \nFormat version : Version 1 \nFormat profile : Layer 3 \nMode : Joint stereo \nMode extension : MS Stereo \nCodec ID : 55 \nCodec ID/Hint : MP3 \nDuration : 1h 24mn \nBit rate mode : Constant \nBit rate : 128 Kbps \nChannel(s) : 2 channels \nSampling rate : 44.1 KHz \nCompression mode : Lossy \nDelay relative to video : 26ms \nStream size : 77.6 MiB (11%) \nAlignment : Split accross interleaves \nInterleave, duration : 40 ms (1.00 video frame) \nInterleave, preload duration : 500 ms \n\n\n[IMG]http://i796.photobucket.com/albums/yy246/jungledave7080/twisted/PresPlotRaw-1.png[/IMG]\n\nsyfi film \n\n\n[IMG]http://i796.photobucket.com/albums/yy246/jungledave7080/twisted/PresScrnRaw-1.png[/IMG]\n\n[IMG]http://i.imgur.com/KjIgy.png[/IMG]\n[IMG]http://i.imgur.com/4yuM2.png[/IMG]\n[IMG]http://i.imgur.com/0KQCr.png[/IMG]\n[IMG]http://i.imgur.com/3A36X.png[/IMG]\n\n\n[IMG]http://i796.photobucket.com/albums/yy246/jungledave7080/twisted/PresNoteRaw-1.png[/IMG]\n\n[color=#FF0000][b]WE DONT RELEASE EVERYTHING TO OTHERS SITES YOU WANT MORE OF OUR STUFF COME FIND US AT .......[/b][/color]\n[color=#FF0000][b]WE ARE LOOKING FOR SUPPLIERS BLURAY CAM R5 PRE RETAIL DVD GOT SOMETHING WE MIGHT LIKE WHEN YOU FIND US TELL US.......[/b][/color]\n\n\nGreets going out to\n\n| Bigguy | DiLLoN | Thorn | Flawl3ss | Imagine | CTFX | BMB | akosipalos | HiTM4N | PA4U2C |\n\n\n[img]http://i.imgur.com/YvsDx.png[/img][/align]","torrent":{"xt":"urn:btih:1204cfd6137358b8c0aeddb4d6b38bd947958da2","amp;dn":"Killer+Mountain+%5B2011%5D+R5+-+PRESTiGE","amp;tr":["udp%3A%2F%2Ftracker.openbittorrent.com%3A80","udp%3A%2F%2Fopen.demonii.com%3A1337","udp%3A%2F%2Ftracker.coppersurfer.tk%3A6969","udp%3A%2F%2Fexodus.desync.com%3A6969"],"infoHash":"1204cfd6137358b8c0aeddb4d6b38bd947958da2","infoHashBuffer":{"type":"Buffer","data":[18,4,207,214,19,115,88,184,192,174,221,180,214,179,139,217,71,149,141,162]},"announce":[],"urlList":[]}}